<svg xmlns="http://www.w3.org/2000/svg" viewBox="0 0 760 620" role="img" aria-labelledby="title desc">
  <title id="title">品牌信息网络示意图</title>
  <desc id="desc">官网、权威来源、真实口碑和监测复测组成的品牌信息网络</desc>
  <defs>
    <radialGradient id="planet" cx="45%" cy="35%" r="68%">
      <stop offset="0" stop-color="#1f7bff" stop-opacity=".95"/>
      <stop offset=".55" stop-color="#0d3ea6" stop-opacity=".9"/>
      <stop offset="1" stop-color="#061b52" stop-opacity=".96"/>
    </radialGradient>
    <linearGradient id="line" x1="0" y1="0" x2="1" y2="1">
      <stop offset="0" stop-color="#64ddff"/>
      <stop offset="1" stop-color="#3d70ff"/>
    </linearGradient>
    <filter id="glow" x="-50%" y="-50%" width="200%" height="200%">
      <feGaussianBlur stdDeviation="7" result="b"/>
      <feMerge><feMergeNode in="b"/><feMergeNode in="SourceGraphic"/></feMerge>
    </filter>
    <filter id="shadow" x="-30%" y="-30%" width="160%" height="160%">
      <feDropShadow dx="0" dy="12" stdDeviation="14" flood-color="#001c63" flood-opacity=".45"/>
    </filter>
  </defs>
  <circle cx="394" cy="315" r="218" fill="url(#planet)"/>
  <circle cx="394" cy="315" r="222" fill="none" stroke="#49c9ff" stroke-opacity=".32" stroke-width="2"/>
  <ellipse cx="394" cy="315" rx="306" ry="126" fill="none" stroke="#5edcff" stroke-opacity=".4" stroke-width="2" stroke-dasharray="7 9" transform="rotate(-12 394 315)"/>
  <ellipse cx="394" cy="315" rx="267" ry="181" fill="none" stroke="#5a86ff" stroke-opacity=".38" stroke-width="2" stroke-dasharray="5 11" transform="rotate(28 394 315)"/>
  <path d="M188 245c72-120 258-185 398-83M177 369c95 106 286 147 421 56M315 105c-34 121-22 338 54 430M502 108c61 123 58 331-15 426" fill="none" stroke="url(#line)" stroke-opacity=".35" stroke-width="2"/>
  <g fill="#55d9ff" opacity=".9" filter="url(#glow)">
    <circle cx="186" cy="245" r="5"/><circle cx="590" cy="164" r="5"/><circle cx="177" cy="369" r="5"/><circle cx="598" cy="425" r="5"/><circle cx="315" cy="105" r="5"/><circle cx="369" cy="535" r="5"/><circle cx="502" cy="108" r="5"/><circle cx="487" cy="534" r="5"/>
  </g>
  <g filter="url(#shadow)" font-family="Arial,'Microsoft YaHei',sans-serif" text-anchor="middle">
    <g transform="translate(280 178)">
      <rect width="126" height="76" rx="20" fill="#fff"/>
      <circle cx="35" cy="38" r="20" fill="#eaf2ff"/><path d="M27 39h16M35 31v16" stroke="#1f6fff" stroke-width="4" stroke-linecap="round"/>
      <text x="83" y="34" font-size="18" font-weight="800" fill="#10275f">官网</text><text x="83" y="54" font-size="11" fill="#65759a">内容底盘</text>
    </g>
    <g transform="translate(430 226)">
      <rect width="138" height="78" rx="20" fill="#fff"/>
      <circle cx="36" cy="39" r="20" fill="#eef8ff"/><path d="M26 45l10-17 10 17z" fill="none" stroke="#0ca6dd" stroke-width="3" stroke-linejoin="round"/>
      <text x="91" y="34" font-size="18" font-weight="800" fill="#10275f">权威来源</text><text x="91" y="55" font-size="11" fill="#65759a">地图·媒体·平台</text>
    </g>
    <g transform="translate(246 330)">
      <rect width="144" height="80" rx="20" fill="#fff"/>
      <circle cx="37" cy="40" r="20" fill="#fff4e9"/><path d="M28 35h18v13H35l-7 5z" fill="none" stroke="#f29a24" stroke-width="3" stroke-linejoin="round"/>
      <text x="95" y="35" font-size="18" font-weight="800" fill="#10275f">真实口碑</text><text x="95" y="56" font-size="11" fill="#65759a">评价·视频·社交</text>
    </g>
    <g transform="translate(420 390)">
      <rect width="142" height="80" rx="20" fill="#fff"/>
      <circle cx="37" cy="40" r="20" fill="#eef4ff"/><path d="M28 45c5-13 14-13 19-1M28 34h18" fill="none" stroke="#4266ee" stroke-width="3" stroke-linecap="round"/>
      <text x="94" y="35" font-size="18" font-weight="800" fill="#10275f">监测复测</text><text x="94" y="56" font-size="11" fill="#65759a">数据驱动修正</text>
    </g>
  </g>
  <g transform="translate(320 270)" filter="url(#glow)">
    <circle cx="74" cy="45" r="57" fill="#071d55" stroke="#67ddff" stroke-width="2"/>
    <text x="74" y="40" text-anchor="middle" font-family="Arial,'Microsoft YaHei',sans-serif" font-size="22" font-weight="800" fill="#fff">品牌事实</text>
    <text x="74" y="65" text-anchor="middle" font-family="Arial,'Microsoft YaHei',sans-serif" font-size="13" fill="#86dfff">统一 · 可读 · 可验证</text>
  </g>
</svg>
