<svg xmlns="http://www.w3.org/2000/svg" width="512" height="512" viewBox="0 0 512 512" role="img" aria-labelledby="title desc">
<title id="title">陈光GEO晨光光轮标志</title><desc id="desc">六片蓝色光瓣围绕金色初升太阳，象征品牌信息向多平台传播并被人工智能发现。</desc>
<defs>
  <linearGradient id="petal" x1="0" y1="0" x2="1" y2="1"><stop offset="0" stop-color="#145CFF"/><stop offset="0.55" stop-color="#238CFF"/><stop offset="1" stop-color="#42D3FF"/></linearGradient>
  <linearGradient id="sun" x1="0" y1="0" x2="0" y2="1"><stop offset="0" stop-color="#FFD86A"/><stop offset="1" stop-color="#F4A62A"/></linearGradient>
  <filter id="shadow" x="-30%" y="-30%" width="160%" height="160%"><feDropShadow dx="0" dy="18" stdDeviation="18" flood-color="#0A48BC" flood-opacity=".18"/></filter>
  <path id="beam" d="M256 40 C294 57 318 86 320 124 C322 161 301 190 267 208 C252 184 245 155 248 126 C251 94 254 67 256 40Z"/>
</defs>
<g filter="url(#shadow)" fill="url(#petal)">
  <use href="#beam"/>
  <use href="#beam" transform="rotate(60 256 256)"/>
  <use href="#beam" transform="rotate(120 256 256)"/>
  <use href="#beam" transform="rotate(180 256 256)"/>
  <use href="#beam" transform="rotate(240 256 256)"/>
  <use href="#beam" transform="rotate(300 256 256)"/>
</g>
<circle cx="256" cy="256" r="101" fill="#F7FAFF" stroke="#DDEAFF" stroke-width="8"/>
<path d="M186 286h140" stroke="#145CFF" stroke-width="16" stroke-linecap="round"/>
<path d="M208 286a48 48 0 0 1 96 0" fill="url(#sun)"/>
<path d="M256 185v-18M214 198l-13-13M298 198l13-13M194 238h-19M318 238h19" stroke="#F4A62A" stroke-width="12" stroke-linecap="round"/>
</svg>