<svg xmlns="http://www.w3.org/2000/svg" width="210" height="52" viewBox="0 0 210 52" role="img" aria-label="陈光GEO">
<defs><linearGradient id="p" x1="0" y1="0" x2="1" y2="1"><stop offset="0" stop-color="#58A6FF"/><stop offset="1" stop-color="#68E0FF"/></linearGradient><linearGradient id="s" x1="0" y1="0" x2="0" y2="1"><stop offset="0" stop-color="#FFE48A"/><stop offset="1" stop-color="#F4A62A"/></linearGradient><path id="b" d="M26 3 C31 5 34 9 34 14 C34 19 31 22 27 25 C25 21 25 17 25 13 C25 9 26 6 26 3Z"/></defs>
<g fill="url(#p)"><use href="#b"/><use href="#b" transform="rotate(60 26 26)"/><use href="#b" transform="rotate(120 26 26)"/><use href="#b" transform="rotate(180 26 26)"/><use href="#b" transform="rotate(240 26 26)"/><use href="#b" transform="rotate(300 26 26)"/></g><circle cx="26" cy="26" r="10.5" fill="#071637" stroke="#5BAFFF" stroke-width="1.4"/><path d="M19 29h14" stroke="#7ADFFF" stroke-width="2.2" stroke-linecap="round"/><path d="M21.5 29a4.5 4.5 0 0 1 9 0" fill="url(#s)"/>
<text x="61" y="34" font-family="Inter,'Microsoft YaHei','PingFang SC',Arial,sans-serif" font-size="25" font-weight="850" fill="#FFFFFF">陈光</text><text x="119" y="34" font-family="Inter,Arial,sans-serif" font-size="25" font-weight="850" fill="#67D8FF">GEO</text></svg>